<svg width="115" height="98" viewBox="0 0 115 98" fill="none" xmlns="http://www.w3.org/2000/svg">
<path d="M98.0626 33.6133C107.016 33.6133 114.375 26.207 114.375 17.3008C114.375 8.39453 107.016 0.988281 98.0626 0.988281C89.1095 0.988281 81.797 8.34766 81.797 17.3008C81.797 26.2539 89.1095 33.6133 98.0626 33.6133ZM98.0626 26.207C93.1876 26.207 89.2032 22.1758 89.2032 17.3008C89.2032 12.4258 93.1876 8.39453 98.0626 8.39453C102.938 8.39453 106.969 12.4727 106.969 17.3008C106.969 22.1289 102.938 26.207 98.0626 26.207ZM76.7345 9.70703H15.5157C11.5782 9.70703 8.8126 10.457 7.21885 12.0039L48.2813 52.5508C50.297 54.5664 52.0782 55.5039 54.047 55.5039C55.9688 55.5039 57.7501 54.5195 59.8126 52.5508L80.7188 31.8789C77.3907 27.9883 75.3751 22.8789 75.3751 17.3008C75.3751 14.6289 75.8438 12.0977 76.7345 9.70703ZM3.3751 82.9258L36.5157 50.1602L3.28135 17.3945C2.57822 18.707 2.20322 20.957 2.20322 24.1914V75.9414C2.20322 79.2695 2.57822 81.6133 3.3751 82.9258ZM85.6407 36.2383L71.5782 50.1602L104.578 82.832C105.328 81.5195 105.703 79.2227 105.703 75.9414V38.6758C103.359 39.5195 100.781 40.0352 98.1095 40.0352C93.5157 40.0352 89.2032 38.6289 85.6407 36.2383ZM16.922 90.4727H92.3907C96.3282 90.4727 99.047 89.7227 100.594 88.2227L66.797 54.7539L63.7032 57.8945C60.5157 61.0352 57.422 62.3945 54.047 62.3945C50.6251 62.3945 47.5313 61.0352 44.3907 57.8945L41.2501 54.7539L7.54697 88.1758C9.32822 89.7227 12.422 90.4727 16.922 90.4727Z" fill="#0075FF"/>
<path d="M97.8759 21.9243L97.876 21.9244L97.8808 21.917L102.311 15.0825C102.468 14.8461 102.554 14.596 102.554 14.3346C102.554 13.6609 102.037 13.167 101.372 13.167C101.176 13.167 100.97 13.2014 100.774 13.3167C100.584 13.4288 100.449 13.5904 100.343 13.7607C100.343 13.761 100.342 13.7614 100.342 13.7618L96.7332 19.4708L95.1352 17.4565L95.1353 17.4564L95.1284 17.4481C95.0188 17.316 94.8867 17.1939 94.7184 17.1076C94.5465 17.0194 94.3655 16.9832 94.18 16.9832C93.5107 16.9832 92.9888 17.482 92.9888 18.1603C92.9888 18.4612 93.0959 18.7335 93.3086 18.9827L95.7525 21.9844L95.7525 21.9844L95.7554 21.988C96.0276 22.3159 96.3683 22.4907 96.7983 22.4907C97.2407 22.4907 97.6224 22.3008 97.8759 21.9243Z" fill="#0075FF" stroke="#0075FF"/>
</svg>
