<svg width="50" height="62" viewBox="0 0 50 62" fill="none" xmlns="http://www.w3.org/2000/svg">
<path d="M30.6667 2.66675H8.00001C6.49712 2.66675 5.05578 3.26377 3.99307 4.32648C2.93037 5.38918 2.33334 6.83052 2.33334 8.33341V53.6667C2.33334 55.1696 2.93037 56.611 3.99307 57.6737C5.05578 58.7364 6.49712 59.3334 8.00001 59.3334H42C43.5029 59.3334 44.9442 58.7364 46.0069 57.6737C47.0696 56.611 47.6667 55.1696 47.6667 53.6667V19.6667L30.6667 2.66675Z" stroke="white" stroke-width="4" stroke-linecap="round" stroke-linejoin="round"/>
<path d="M30.6667 2.66675V19.6668H47.6667" stroke="white" stroke-width="4" stroke-linecap="round" stroke-linejoin="round"/>
<path d="M36.3333 33.8333H13.6667" stroke="white" stroke-width="4" stroke-linecap="round" stroke-linejoin="round"/>
<path d="M36.3333 45.1667H13.6667" stroke="white" stroke-width="4" stroke-linecap="round" stroke-linejoin="round"/>
<path d="M19.3333 22.5H16.5H13.6667" stroke="white" stroke-width="4" stroke-linecap="round" stroke-linejoin="round"/>
</svg>
