<svg width="128" height="128" viewBox="0 0 128 128" fill="none" xmlns="http://www.w3.org/2000/svg">
<circle cx="64" cy="64" r="64" fill="#F0C744"/>
<path d="M83.5344 89.7671V83.2813C83.5344 75.6424 77.6318 71.0738 71.9589 66.6164C71.1753 66.0021 70.178 64.8355 70.178 63.0548C70.178 61.274 71.0764 59.5377 71.9589 58.795C77.4784 54.1507 83.5344 49.7689 83.5344 42.1301V37.2329H87.9864V31H39.0137V37.2329H43.4657V42.1302C43.4657 49.7691 49.5213 54.1508 55.0411 58.7951C55.9236 59.5378 56.822 61.274 56.822 63.0549C56.822 64.8358 55.8247 66.0021 55.0411 66.6166C49.3683 71.074 43.4657 75.6427 43.4657 83.2815V89.7672H39.0137V96H87.9862V89.7671H83.5344ZM52.2568 47.9178C50.6157 46.0603 49.6987 44.2724 49.6987 42.1301V37.2329H77.3013V42.1302C77.3013 44.2724 76.3841 46.0606 74.7432 47.9179H52.2568V47.9178ZM77.3013 88.03L66.8186 83.9387C64.9932 83.2264 62.0077 83.2264 60.1823 83.9387L49.6987 88.0303V83.2817C49.6987 78.9596 53.1339 76.0409 58.7399 71.6369L58.8886 71.5204C61.0166 69.8517 62.3968 67.5278 62.8652 64.9669C63.2846 65.0604 63.7156 65.0604 64.1349 64.9669C64.6015 67.527 65.9833 69.851 68.1087 71.5177L68.26 71.6369C73.866 76.0407 77.3012 78.9586 77.3012 83.2816V88.03H77.3013Z" fill="white"/>
</svg>
