<svg width="184" height="32" viewBox="0 0 184 32" fill="none" xmlns="http://www.w3.org/2000/svg">
<path d="M132.874 28.8613V5.64111H141.399C142.699 5.64111 143.897 5.73608 144.993 5.92602C146.115 6.09222 147.083 6.40087 147.899 6.85198C148.74 7.30309 149.39 7.89666 149.849 8.63268C150.333 9.3687 150.575 10.2947 150.575 11.4106C150.575 11.9329 150.499 12.4552 150.346 12.9776C150.193 13.4999 149.976 13.9866 149.696 14.4377C149.415 14.8888 149.071 15.2925 148.664 15.6486C148.281 16.0047 147.835 16.2659 147.325 16.4321V16.5746C147.963 16.717 148.549 16.9426 149.084 17.2512C149.619 17.5361 150.091 17.9041 150.499 18.3553C150.907 18.8064 151.225 19.3406 151.455 19.9579C151.684 20.5514 151.799 21.24 151.799 22.0235C151.799 23.2106 151.544 24.2315 151.034 25.0863C150.55 25.941 149.862 26.6533 148.969 27.2231C148.103 27.7692 147.083 28.1847 145.911 28.4696C144.738 28.7308 143.477 28.8613 142.126 28.8613H132.874ZM138.494 14.9363H141.132C142.508 14.9363 143.502 14.687 144.114 14.1884C144.751 13.6898 145.07 13.025 145.07 12.1941C145.07 11.2918 144.751 10.6508 144.114 10.2709C143.477 9.89103 142.495 9.70109 141.17 9.70109H138.494V14.9363ZM138.494 24.8014H141.667C144.751 24.8014 146.293 23.7567 146.293 21.6673C146.293 20.6464 145.911 19.9223 145.146 19.4949C144.382 19.0438 143.222 18.8182 141.667 18.8182H138.494V24.8014Z" fill="#112535"/>
<path d="M156.022 28.8613V5.64111H161.642V28.8613H156.022Z" fill="#112535"/>
<path d="M165.954 28.8613V25.6917L176.965 10.0572H166.986V5.64111H183.885V8.81074L172.874 24.4452H184V28.8613H165.954Z" fill="#112535"/>
<path d="M40.8857 5.61426H45.3166V19.0135C45.3166 24.0798 47.3745 25.7425 50.3984 25.7425C53.4643 25.7425 55.5642 24.0602 55.5642 19.0135V5.61426H59.848V18.681C59.848 26.3293 56.1732 29.3221 50.3984 29.3221C44.5816 29.3221 40.8857 26.3293 40.8857 18.681V5.61426ZM66.3578 5.61426H74.3585C79.4823 5.61426 83.2622 7.08133 83.2622 11.3456C83.2622 13.556 81.9182 15.6881 78.9784 16.4119V16.5488C82.5692 17.1161 84.6061 18.9353 84.6061 22.065C84.6061 26.7401 80.5113 28.9113 75.0095 28.9113H66.3578V5.61426ZM73.9175 15.2578C77.4454 15.2578 78.8944 14.0059 78.8944 11.8346C78.8944 9.70249 77.2984 8.80269 74.0435 8.80269H70.7886V15.2578H73.9175ZM74.5475 25.7033C78.2224 25.7033 80.2383 24.4123 80.2383 21.7911C80.2383 19.3656 78.2434 18.2311 74.5475 18.2311H70.8097V25.7033H74.5475ZM89.457 5.61426H104.471V9.0961H93.8878V15.0426H102.875V18.5245H93.8878V25.3904H104.87V28.8722H89.457V5.61426ZM123.854 28.9113L118.457 19.7959H114.677V28.9113H110.246V5.61426H118.667C123.875 5.61426 127.886 7.31606 127.886 12.5193C127.886 16.0794 125.891 18.2115 122.867 19.17L128.831 28.8918H123.854V28.9113ZM114.677 16.5097H118.205C121.649 16.5097 123.476 15.16 123.476 12.5193C123.476 9.83942 121.649 8.92006 118.205 8.92006H114.677V16.5097Z" fill="#1989FA"/>
<path d="M10.584 18.4259C10.647 18.3673 10.71 18.3086 10.773 18.2499C10.836 18.1912 10.899 18.1325 10.962 18.0739C11.025 18.0152 11.088 17.9565 11.151 17.8978C11.592 18.113 11.8859 17.3305 12.4109 17.7609C13.1459 18.3673 13.9859 18.8367 14.9098 19.1693C15.3508 19.3257 15.8968 19.5605 15.8758 20.1864C15.8128 20.2451 15.7708 20.3038 15.7078 20.3625C15.0988 21.1449 15.1828 21.5361 16.0648 21.7513C16.1068 21.8491 16.1278 21.986 16.2118 22.0252C16.3588 22.0838 16.4008 21.9665 16.4428 21.8491C16.5688 21.8491 16.6948 21.8295 16.8418 21.8295C17.0098 21.9469 17.1358 21.9078 17.1778 21.7122L17.1568 21.7317C17.2198 21.6731 17.3038 21.6144 17.3667 21.5557L17.3457 21.5753C17.4087 21.5166 17.4717 21.4579 17.5557 21.3796L17.5347 21.3992C17.5977 21.3405 17.6607 21.2818 17.7447 21.2036C18.6897 21.4775 19.2777 22.2599 20.1176 22.7098C20.7266 23.0423 21.5456 23.2771 21.9026 23.9813C21.3566 24.4312 21.0206 25.0571 20.3696 25.4288C19.8447 25.4679 19.4247 25.5852 19.5297 26.2112L19.4667 26.1525L19.5297 26.2112C18.5847 26.485 17.7237 26.0938 17.2828 25.4874C16.5898 24.5485 15.5398 24.4312 14.5948 24.0204C14.7628 23.4922 14.6788 23.0619 14.1329 22.7489C13.4819 22.3968 13.1039 22.8663 12.6629 23.1401C12.5369 22.8076 13.0619 22.2795 12.6839 22.1816C11.76 21.9665 11.256 21.1449 10.311 20.9884C9.87002 20.9102 9.07205 21.0276 9.34504 20.1277C9.38704 19.9713 9.05105 19.9908 8.88306 19.9713C9.07205 19.6778 9.32404 19.4431 9.63903 19.2671C9.68103 19.404 9.70203 19.5996 9.91202 19.5214C10.311 19.3844 10.206 19.0519 10.164 18.778C10.248 18.6998 10.311 18.6216 10.395 18.5629C10.458 18.5433 10.521 18.4846 10.584 18.4259Z" fill="#1989FA"/>
<path d="M31.5413 24.4899C31.0793 25.0377 30.5333 25.5267 29.9663 25.957C30.1133 24.979 29.3784 24.3139 28.7064 23.9814C27.8244 23.5315 26.9634 23.062 26.0605 22.6512C25.7035 21.5362 25.2415 21.3602 24.1705 21.9275C24.2335 21.1059 23.3936 20.969 22.9316 20.5386C22.1126 19.7953 21.1887 19.2281 19.9917 19.1302C20.6217 18.4261 21.3147 17.8001 22.0706 17.1937C22.1336 17.135 22.2176 17.0568 22.2806 16.9981C22.4696 16.7243 22.7216 16.4895 23.0156 16.3135C23.9186 16.7438 24.6115 17.5654 25.7455 17.6241C25.9765 17.6436 26.0605 17.8784 26.1445 18.074C26.2705 18.3869 26.3965 18.6412 26.8375 18.6217C27.1944 18.6021 27.1944 18.876 27.1944 19.1107V19.1302C27.1314 19.1889 27.0894 19.2476 27.0264 19.3259C27.0054 19.3454 26.9424 19.3454 26.9424 19.365C26.9424 19.4041 26.9424 19.4628 26.9424 19.5019C26.9004 19.6388 26.8794 19.7758 26.8375 19.9127C26.8375 19.9518 26.8374 19.9714 26.8584 19.9909C27.4674 20.9299 27.8664 20.9885 28.8324 20.3626C29.2944 20.3235 29.7353 20.3039 29.8193 20.9103C29.8823 21.3798 30.2393 21.5362 30.7223 21.6536C31.6883 21.8883 32.3392 22.5339 32.9062 23.2576C32.5072 23.1794 32.4652 23.4337 32.4652 23.6879L32.4232 23.7271C32.3812 23.7662 32.3392 23.8249 32.2763 23.864C32.1923 23.9422 32.0873 24.04 32.0033 24.1183C31.8773 24.1378 31.7933 24.1965 31.7723 24.3335L31.7933 24.3139C31.6253 24.2943 31.5623 24.3726 31.5413 24.4899Z" fill="#1989FA"/>
<path d="M16.023 12.4803C15.5821 12.0109 15.0571 11.8544 14.4271 12.1478C14.2171 11.561 14.1961 10.759 13.4611 10.6025C12.7472 10.4656 12.2642 10.133 11.8652 9.66358C11.5082 9.21368 11.0672 9.05719 10.5002 9.09631C11.5082 8.05958 12.5792 7.06197 13.7131 6.12305C14.0281 6.18173 14.3851 6.22085 14.4901 6.51427C14.7841 7.1989 15.4981 7.49231 16.044 7.7466C16.926 8.17695 17.43 8.58772 17.199 9.54621C16.905 10.0548 16.8 10.5634 17.346 10.9546C18.081 11.4632 18.543 10.9155 19.0469 10.5438C19.8659 10.6612 20.4539 11.2089 21.0629 11.6197C21.7978 12.1283 22.9108 12.2847 23.1838 13.3215C22.5748 14.0648 21.8608 14.6907 21.1259 15.2971C20.5379 14.9059 19.9289 14.5538 19.3829 14.1235C18.6689 13.5758 17.85 13.2432 17.073 12.8129C16.737 12.5977 16.443 12.4412 16.023 12.4803Z" fill="#1989FA"/>
<path d="M5.60697 13.6731C5.92196 13.3601 6.23695 13.0275 6.55193 12.7341C7.32891 11.9908 7.30791 11.58 6.42594 10.8954C6.38394 10.7976 6.32094 10.7976 6.23695 10.8758C5.45997 10.8563 5.14499 11.4822 4.641 11.8539C3.61204 12.6168 2.26809 12.6168 1.30212 11.8343C0.399157 11.1106 0.105169 9.85867 0.714147 8.91975C1.00814 8.46985 1.38612 8.03951 1.8691 7.74609C3.31805 7.8439 4.20002 8.90019 5.27098 9.60438C5.60697 9.83911 5.92196 10.0543 6.29994 10.2695C7.34991 10.8172 8.79885 10.6998 9.49183 11.9126C9.63882 12.1864 10.0378 12.2842 10.3738 12.3429C11.1298 12.4994 11.3818 13.321 12.1377 13.5166C12.2007 13.5361 12.1167 14.0447 12.0957 14.3186C11.3398 15.1206 10.5418 15.8834 9.65982 16.5681C9.59682 16.1964 9.36583 16.0008 8.96685 16.0204C8.65186 16.0399 8.42087 15.903 8.23187 15.6878C7.5599 14.9445 6.32094 14.8272 5.92196 13.7904C5.92196 13.6926 5.73296 13.6926 5.60697 13.6731Z" fill="#1989FA"/>
<path d="M12.1168 14.2799C12.1378 14.006 12.2218 13.4779 12.1588 13.4779C11.4028 13.2823 11.1508 12.4607 10.3948 12.3042C10.0378 12.226 9.65985 12.1477 9.51286 11.8739C8.81989 10.6807 7.39194 10.7785 6.32098 10.2308C5.94299 10.0351 5.628 9.80041 5.29201 9.56568C4.22105 8.86149 3.33908 7.8052 1.89014 7.70739C2.64611 6.88583 3.46508 6.14252 4.34705 5.41876C4.43104 5.36008 4.49404 5.28184 4.57804 5.22315C4.70404 5.10579 4.80903 5.00798 4.93503 4.89062C5.43901 4.8515 5.83799 5.02754 6.17398 5.37964C6.42597 5.63393 6.69896 6.02515 6.99295 6.04471C8.14791 6.12296 8.4629 7.06188 9.11387 7.66827C9.05088 7.72695 8.96688 7.8052 8.90388 7.86388C8.3369 7.8052 8.12691 8.05949 8.18991 8.56807C7.97992 9.11578 8.02191 9.6048 8.63089 9.89822C9.19787 10.1721 9.63885 9.91778 10.0168 9.52656C10.1848 9.35051 10.3738 9.21358 10.5628 9.07666C11.1298 9.0571 11.5498 9.19402 11.9278 9.64392C12.3058 10.1134 12.7887 10.4459 13.5237 10.5828C14.2377 10.7198 14.2797 11.5413 14.4897 12.1282C13.9857 12.0304 13.6917 12.089 13.9017 12.6563C13.3137 13.2823 12.7467 13.8104 12.1168 14.2799Z" fill="#1989FA"/>
<path d="M7.22405 18.6608C6.40508 19.6779 5.43912 20.5973 4.45215 21.4775C3.31819 22.4947 1.78525 22.4947 0.756287 21.5362C-0.272675 20.5777 -0.251675 19.1302 0.819285 18.0739C1.55426 17.3698 2.35223 16.6851 3.1082 16.0005C3.44419 16.5286 3.92717 16.9003 4.45215 17.2524C5.31312 17.8588 6.34208 18.1131 7.22405 18.6608Z" fill="#1989FA"/>
<path d="M16.3379 3.65783C17.4089 2.64066 18.4378 1.58437 19.5718 0.625886C20.6217 -0.273917 22.1547 -0.176112 23.1206 0.743252C24.0236 1.62349 24.0866 3.071 23.1836 3.99037C22.5327 4.65544 21.7977 5.24227 21.1047 5.86822C20.1808 5.67261 19.3408 5.08578 18.7108 4.59676C17.9548 4.02949 17.2199 3.81432 16.3379 3.65783Z" fill="#1989FA"/>
<path d="M9.07216 7.68741C8.42118 7.08102 8.10619 6.1421 6.95124 6.06385C6.65725 6.04429 6.36326 5.65307 6.13226 5.39878C5.79628 5.04668 5.39729 4.87063 4.89331 4.90976C5.77528 4.0882 6.61525 3.20796 7.51822 2.42552C8.54718 1.54528 10.0171 1.60396 11.0041 2.4842C11.9911 3.36444 12.075 4.83151 11.1301 5.79C10.4791 6.47463 9.76513 7.06146 9.07216 7.68741Z" fill="#1989FA"/>
<path d="M9.63886 25.997C9.13488 26.486 8.67289 26.9946 8.14791 27.4249C7.11895 28.2465 5.607 28.1683 4.66204 27.288C3.71707 26.4078 3.65408 24.9994 4.53604 24.0409C4.93503 23.6106 5.41801 23.2389 5.88 22.8281C6.08999 22.8672 6.44697 22.7303 6.34198 23.1411C6.29998 23.2976 6.06899 23.415 6.29998 23.591C6.48897 23.7279 6.65697 23.6106 6.78296 23.4736C7.24495 23.0237 7.55993 23.1607 7.87492 23.6497C8.02192 23.904 8.27391 24.1778 8.5259 24.2561C9.42887 24.569 9.57586 25.2341 9.63886 25.997Z" fill="#1989FA"/>
<path d="M16.3375 3.65771C17.2195 3.8142 17.9545 4.02937 18.7315 4.6162C19.3614 5.10522 20.2014 5.69205 21.1254 5.88766C19.8864 7.17868 18.5845 8.3719 17.2195 9.54556C17.4505 8.60663 16.9465 8.17629 16.0646 7.74595C15.5186 7.4721 14.7836 7.17868 14.5106 6.51361C14.3846 6.2202 14.0276 6.18107 13.7336 6.12239C14.5946 5.30083 15.4556 4.47927 16.3375 3.65771Z" fill="#1989FA"/>
<path d="M26.0393 22.6514C26.9423 23.0621 27.8032 23.5512 28.6852 23.9815C29.3572 24.314 30.0921 24.9987 29.9451 25.9572C29.4832 26.3875 29.0632 26.8765 28.5592 27.2677C27.5092 28.1089 26.0183 28.0111 25.0733 27.1113C24.1284 26.2115 24.0654 24.8226 24.9683 23.8446C25.3463 23.4729 25.8083 23.1404 26.0393 22.6514Z" fill="#1989FA"/>
<path d="M29.9874 6.16167C29.9874 7.45269 28.7904 8.56766 27.4045 8.56766C26.0185 8.56766 24.8216 7.47225 24.8006 6.18123C24.7796 4.85109 26.0185 3.69699 27.4255 3.71655C28.8114 3.73611 29.9874 4.87065 29.9874 6.16167Z" fill="#1989FA"/>
<path d="M9.63924 25.9968C9.57624 25.2535 9.42924 24.5689 8.50528 24.2755C8.23229 24.1972 8.0013 23.9038 7.8543 23.6691C7.53931 23.1801 7.22432 23.0431 6.76234 23.493C6.63635 23.63 6.46835 23.7473 6.27936 23.6104C6.04837 23.4539 6.30036 23.317 6.32136 23.1605C6.42635 22.7497 6.06937 22.8867 5.85938 22.8475C6.80434 21.8499 7.8123 20.9306 8.88327 20.0308C9.05126 20.0503 9.40825 20.0308 9.34525 20.1872C9.07226 21.0871 9.87023 20.9697 10.3112 21.0479C11.2562 21.2044 11.7602 22.026 12.6841 22.2411C13.0621 22.3194 12.5371 22.8475 12.6631 23.1996C12.6001 23.2583 12.5371 23.317 12.4741 23.3757C12.4111 23.4344 12.3481 23.493 12.2851 23.5517C11.4662 24.4124 10.5842 25.234 9.63924 25.9968Z" fill="#1989FA"/>
<path d="M14.5946 24.0596C15.5396 24.4703 16.5895 24.5682 17.2825 25.5266C17.7235 26.133 18.5845 26.5243 19.5294 26.2504C18.3535 27.4241 17.1775 28.5977 15.8756 29.6344C15.0356 28.1478 13.4607 27.4436 12.0747 26.5047C12.6417 25.8592 13.2717 25.2919 13.9646 24.7442C14.1536 24.7833 14.2166 25.155 14.4476 24.9789C14.6996 24.8029 14.4056 24.5682 14.3426 24.3725C14.4266 24.2747 14.5106 24.1574 14.5946 24.0596Z" fill="#1989FA"/>
<path d="M12.0748 26.5054C13.4398 27.4247 15.0357 28.1289 15.8757 29.6351C15.3927 30.1241 14.9307 30.6523 14.3847 31.0631C13.2928 31.9042 11.7598 31.7868 10.8359 30.8479C9.95391 29.9481 9.95391 28.5201 10.8569 27.5812C11.2349 27.19 11.6548 26.8575 12.0748 26.5054Z" fill="#1989FA"/>
<path d="M32.6331 14.0451C31.6881 15.0427 30.6801 15.9816 29.6092 16.8423C29.6092 16.2359 29.2942 15.8447 28.7692 15.4926C27.8242 14.8666 26.9213 14.182 26.0183 13.5169C26.8373 12.6367 27.7192 11.8347 28.6432 11.0522C29.6722 11.1109 30.0502 12.1085 30.9321 12.4215C31.7511 12.6954 32.2971 13.3018 32.6331 14.0451Z" fill="#1989FA"/>
<path d="M26.0183 13.5166C26.9422 14.1817 27.8242 14.8663 28.7692 15.4923C29.2942 15.8444 29.6091 16.2356 29.6091 16.842C28.8532 17.6635 28.0342 18.4264 27.1522 19.1306C27.1522 18.8959 27.1522 18.622 26.7953 18.6416C26.3543 18.6611 26.2283 18.4068 26.1023 18.0939C26.0393 17.8982 25.9343 17.644 25.7033 17.644C24.5693 17.5853 23.8974 16.7637 22.9734 16.3334C23.9394 15.3358 24.9473 14.3968 26.0183 13.5166Z" fill="#1989FA"/>
<path d="M16.0226 12.4802C16.4425 12.4215 16.7575 12.5976 17.1145 12.7932C17.8915 13.2235 18.7105 13.5561 19.4244 14.1038C19.9704 14.5341 20.5794 14.8862 21.1674 15.2774C20.2854 16.2164 19.3404 17.0966 18.3325 17.9182C18.1225 16.2555 16.1485 16.4706 15.3086 15.473C15.2876 15.4535 15.1616 15.4339 15.1406 15.473C14.6786 15.8838 14.2586 15.4926 13.7966 15.4535C14.3636 14.8862 14.9306 14.3189 15.5396 13.7908C15.9596 13.4191 16.1695 13.0279 16.0226 12.4802Z" fill="#1989FA"/>
<path d="M13.7968 15.4536C14.2378 15.4732 14.6788 15.8644 15.1407 15.4732C15.1827 15.4536 15.2877 15.4536 15.3087 15.4732C16.1487 16.4708 18.1226 16.2556 18.3326 17.9183C17.5766 18.7399 16.7577 19.5027 15.8757 20.2069C15.8967 19.581 15.3507 19.3462 14.9097 19.1898C13.9858 18.8572 13.1458 18.3878 12.4108 17.7814C11.8859 17.351 11.5919 18.1139 11.1509 17.9183C11.8439 17.1554 12.5998 16.4708 13.4188 15.8057C13.4818 15.747 13.5448 15.6883 13.6078 15.6297C13.6708 15.571 13.7338 15.5123 13.7968 15.4536Z" fill="#1989FA"/>
<path d="M7.224 18.6614C6.34203 18.1137 5.31307 17.8398 4.4521 17.253C3.92712 16.8814 3.42314 16.5293 3.10815 16.0011C3.21315 15.8251 3.36014 15.6686 3.57014 15.5903C3.61214 15.6099 3.63313 15.649 3.67513 15.6686C3.65413 15.6295 3.61213 15.6099 3.59114 15.5708C4.17911 14.8666 4.91409 14.2798 5.62806 13.6538C5.75406 13.6929 5.94305 13.6929 5.96405 13.7516C6.36304 14.7883 7.60199 14.9057 8.27396 15.649C8.46296 15.8642 8.69395 16.0011 9.00894 15.9816C9.42892 15.962 9.63892 16.1576 9.70191 16.5293C9.63892 16.6075 9.55492 16.6662 9.49192 16.7444C8.77795 17.4291 8.16897 18.2115 7.224 18.6614Z" fill="#1989FA"/>
<path d="M19.9915 19.1299C21.1675 19.2277 22.1125 19.795 22.9314 20.5383C23.3934 20.949 24.2334 21.1055 24.1704 21.9271L24.1494 21.9467C23.9184 21.9662 23.7924 22.064 23.7924 22.2792C23.2254 22.9051 22.6165 23.5115 21.9025 24.0006C21.5455 23.2964 20.7265 23.0616 20.1175 22.7291C19.2776 22.2792 18.6896 21.4968 17.7446 21.2229C18.2486 20.6361 18.8156 20.1275 19.4246 19.6385C19.4876 19.5798 19.5716 19.5015 19.6346 19.4429C19.7396 19.3451 19.8656 19.2472 19.9915 19.1299Z" fill="#1989FA"/>
<path d="M32.6334 14.0445C32.2974 13.3012 31.7514 12.6948 30.9535 12.421C30.0715 12.108 29.6725 11.13 28.6646 11.0517C29.3155 10.3671 29.9245 9.60422 30.9955 9.44773C32.0664 9.29124 33.0954 9.70202 33.6414 10.5627C34.1874 11.4429 34.1663 12.3427 33.5574 13.1839C33.3054 13.5164 33.0114 13.8294 32.6334 14.0445Z" fill="#1989FA"/>
<path d="M23.2047 13.321C22.9317 12.3038 21.8188 12.1278 21.0838 11.6192C20.4748 11.2084 19.8868 10.6607 19.0679 10.5434C19.3829 10.2304 19.6768 9.87828 20.0338 9.60443C21.1888 8.6655 22.8687 8.78287 23.7927 9.83916C24.7377 10.9541 24.5067 12.4016 23.2047 13.321Z" fill="#1989FA"/>
<path d="M32.8851 23.2186C32.3182 22.4948 31.6672 21.8493 30.7012 21.6146C30.2182 21.4972 29.8612 21.3407 29.7982 20.8712C29.7142 20.2649 29.2733 20.2844 28.8113 20.3235C29.9872 19.0716 31.5202 18.876 32.6751 19.7954C33.8091 20.7148 33.8931 22.1427 32.8851 23.2186Z" fill="#1989FA"/>
<path d="M16.0646 21.7711C15.1827 21.556 15.0777 21.1648 15.7076 20.3823C15.4767 20.9105 15.6027 21.3799 16.0646 21.7711Z" fill="#1989FA"/>
<path d="M19.5294 26.2312C19.4244 25.6052 19.8444 25.4879 20.3693 25.4487C20.1594 25.7617 19.8654 26.016 19.5294 26.2312Z" fill="#1989FA"/>
<path d="M8.12699 8.60654C8.06399 8.09795 8.27399 7.84366 8.84096 7.90234C8.60997 8.13708 8.37898 8.3718 8.12699 8.60654Z" fill="#1989FA"/>
<path d="M10.1639 18.8364C10.2059 19.1298 10.3109 19.4428 9.91191 19.5797C9.70191 19.658 9.68091 19.4624 9.63892 19.3254C9.82791 19.1494 9.9959 18.9929 10.1639 18.8364Z" fill="#1989FA"/>
<path d="M14.3428 24.3726C14.4058 24.5682 14.6788 24.8029 14.4478 24.9789C14.2168 25.155 14.1538 24.7638 13.9648 24.7442C14.0908 24.6268 14.2168 24.5095 14.3428 24.3726Z" fill="#1989FA"/>
<path d="M13.8177 12.695C13.6077 12.1278 13.9227 12.0495 14.4056 12.1669C14.2586 12.3821 14.0696 12.5581 13.8177 12.695Z" fill="#1989FA"/>
<path d="M32.4231 23.6493C32.4441 23.395 32.4861 23.1407 32.8641 23.219C32.8011 23.4342 32.6331 23.5711 32.4231 23.6493Z" fill="#1989FA"/>
<path d="M16.4427 21.8688C16.4007 21.9862 16.3587 22.1035 16.2117 22.0449C16.1277 22.0057 16.1067 21.8688 16.0647 21.771C16.1907 21.7906 16.3167 21.8297 16.4427 21.8688Z" fill="#1989FA"/>
<path d="M23.7712 22.2798C23.7922 22.0646 23.9182 21.9473 24.1282 21.9473C24.0862 22.1233 23.9392 22.2211 23.7712 22.2798Z" fill="#1989FA"/>
<path d="M17.1568 21.7319C17.0938 21.9275 16.9888 21.9667 16.8208 21.8493C16.9468 21.8102 17.0518 21.7711 17.1568 21.7319Z" fill="#1989FA"/>
<path d="M4.53568 5.22217C4.45168 5.28085 4.38868 5.35909 4.30469 5.41778C4.38868 5.35909 4.47268 5.30041 4.53568 5.22217Z" fill="#1989FA"/>
<path d="M17.7449 21.2231C17.6819 21.2818 17.6189 21.3405 17.5349 21.4188C17.5979 21.3405 17.6819 21.2818 17.7449 21.2231Z" fill="#1989FA"/>
<path d="M17.5557 21.3994C17.4927 21.4581 17.4297 21.5168 17.3457 21.595C17.4087 21.5168 17.4927 21.4581 17.5557 21.3994Z" fill="#1989FA"/>
<path d="M17.3665 21.5757C17.3035 21.6344 17.2195 21.6931 17.1565 21.7517C17.2195 21.6931 17.2825 21.6344 17.3665 21.5757Z" fill="#1989FA"/>
<path d="M26.8377 19.9713C26.8167 19.9517 26.8167 19.9126 26.8167 19.8931L26.8586 19.9322L26.8377 19.9713Z" fill="#1989FA"/>
<path d="M19.6346 19.4624C19.5716 19.5211 19.4876 19.5993 19.4246 19.658C19.4876 19.5993 19.5506 19.5211 19.6346 19.4624Z" fill="#1989FA"/>
<path d="M26.9215 19.4832C26.9215 19.4439 26.9004 19.3848 26.9215 19.3455C26.9215 19.3258 26.9637 19.3258 27.006 19.3062C26.9637 19.3848 26.9426 19.4242 26.9215 19.4832Z" fill="#1989FA"/>
<path d="M26.9844 19.3255C27.0474 19.2668 27.0894 19.2081 27.1524 19.1299C27.1104 19.2081 27.0474 19.2668 26.9844 19.3255Z" fill="#1989FA"/>
<path d="M10.5838 18.4263C10.5208 18.485 10.4578 18.5436 10.3948 18.6023C10.4578 18.5436 10.5208 18.485 10.5838 18.4263Z" fill="#1989FA"/>
<path d="M22.2593 16.9985C22.1963 17.0572 22.1123 17.1355 22.0493 17.1941C22.1333 17.1355 22.1963 17.0768 22.2593 16.9985Z" fill="#1989FA"/>
<path d="M12.2847 23.532C12.3477 23.4733 12.4107 23.4146 12.4737 23.356C12.4107 23.4146 12.3477 23.4733 12.2847 23.532Z" fill="#1989FA"/>
<path d="M32.2551 23.8262C32.2974 23.7868 32.3396 23.7278 32.403 23.6885C32.3396 23.7475 32.2974 23.7868 32.2551 23.8262Z" fill="#1989FA"/>
<path d="M31.7305 24.2943C31.7515 24.1573 31.8355 24.0987 31.9615 24.0791C31.8985 24.1573 31.8145 24.216 31.7305 24.2943Z" fill="#1989FA"/>
<path d="M31.541 24.4896C31.562 24.3723 31.625 24.2744 31.772 24.2549C31.688 24.3331 31.604 24.4114 31.541 24.4896Z" fill="#1989FA"/>
<path d="M9.47119 16.7435C9.53419 16.6652 9.61819 16.6066 9.68118 16.5283C9.61819 16.587 9.55519 16.6652 9.47119 16.7435Z" fill="#1989FA"/>
<path d="M6.25806 10.8567C6.32105 10.7785 6.38405 10.7785 6.44705 10.8763C6.38405 10.8763 6.32105 10.8567 6.25806 10.8567Z" fill="#1989FA"/>
<path d="M13.6079 15.6289C13.5449 15.6876 13.4819 15.7463 13.4189 15.805C13.4819 15.7463 13.5449 15.6876 13.6079 15.6289Z" fill="#1989FA"/>
<path d="M10.9619 18.0938C10.8989 18.1524 10.8359 18.2111 10.7729 18.2698C10.8359 18.2111 10.8989 18.1524 10.9619 18.0938Z" fill="#1989FA"/>
<path d="M3.57042 15.5698C3.59154 15.6092 3.63378 15.6288 3.6549 15.6682C3.63378 15.6485 3.59154 15.6092 3.57042 15.5698C3.5493 15.5895 3.57042 15.5698 3.57042 15.5698Z" fill="#1989FA"/>
</svg>
