<svg width="31" height="38" viewBox="0 0 31 38" fill="none" xmlns="http://www.w3.org/2000/svg">
<path d="M18.875 2H5.375C4.47989 2 3.62145 2.35821 2.98851 2.99584C2.35558 3.63346 2 4.49826 2 5.4V32.6C2 33.5017 2.35558 34.3665 2.98851 35.0042C3.62145 35.6418 4.47989 36 5.375 36H25.625C26.5201 36 27.3785 35.6418 28.0115 35.0042C28.6444 34.3665 29 33.5017 29 32.6V12.2M18.875 2L29 12.2M18.875 2V12.2H29M22.25 20.7H8.75M22.25 27.5H8.75M12.125 13.9H8.75" stroke="#00CA20" stroke-width="3" stroke-linecap="round" stroke-linejoin="round"/>
</svg>
