<svg width="38" height="38" viewBox="0 0 38 38" fill="none" xmlns="http://www.w3.org/2000/svg">
<path d="M5.77778 36H32.2222C34.3086 36 36 34.3086 36 32.2222V5.77778C36 3.69137 34.3086 2 32.2222 2H5.77778C3.69137 2 2 3.69137 2 5.77778V32.2222C2 34.3086 3.69137 36 5.77778 36ZM5.77778 36L26.5556 15.2222L36 24.6667M15.2222 12.3889C15.2222 13.9537 13.9537 15.2222 12.3889 15.2222C10.8241 15.2222 9.55555 13.9537 9.55555 12.3889C9.55555 10.8241 10.8241 9.55555 12.3889 9.55555C13.9537 9.55555 15.2222 10.8241 15.2222 12.3889Z" stroke="#00A3FF" stroke-width="3" stroke-linecap="round" stroke-linejoin="round"/>
</svg>
